<?xml version="1.0" encoding="UTF-8"?>
<svg width="24px" height="24px" viewBox="0 0 24 24" version="1.1" xmlns="http://www.w3.org/2000/svg">
    <path d="M24,12.073 C24,5.404 18.627,0 12,0 C5.373,0 0,5.404 0,12.073 C0,18.099 4.388,23.094 10.125,24 L10.125,15.563 L7.078,15.563 L7.078,12.073 L10.125,12.073 L10.125,9.413 C10.125,6.388 11.917,4.716 14.658,4.716 C15.97,4.716 17.344,4.952 17.344,4.952 L17.344,7.937 L15.83,7.937 C14.339,7.937 13.874,8.867 13.874,9.819 L13.874,12.073 L17.202,12.073 L16.67,15.563 L13.874,15.563 L13.874,24 C19.612,23.094 24,18.099 24,12.073" fill="#1877F2"/>
</svg> 