<svg xmlns="http://www.w3.org/2000/svg" xmlns:xlink="http://www.w3.org/1999/xlink" width="500" zoomAndPan="magnify" viewBox="0 0 375 374.999991" height="500" preserveAspectRatio="xMidYMid meet" version="1.0"><defs><g/><clipPath id="313f4d6dc6"><path d="M 48.980469 28.507812 L 328 28.507812 L 328 302.28125 L 48.980469 302.28125 Z M 48.980469 28.507812 " clip-rule="nonzero"/></clipPath><clipPath id="a6d19d1592"><path d="M 188.191406 28.507812 C 111.304688 28.507812 48.980469 89.796875 48.980469 165.394531 C 48.980469 240.996094 111.304688 302.28125 188.191406 302.28125 C 265.074219 302.28125 327.402344 240.996094 327.402344 165.394531 C 327.402344 89.796875 265.074219 28.507812 188.191406 28.507812 Z M 188.191406 28.507812 " clip-rule="nonzero"/></clipPath><clipPath id="fe566f07e6"><path d="M 60.480469 38 L 316.980469 38 L 316.980469 169.683594 L 60.480469 169.683594 Z M 60.480469 38 " clip-rule="nonzero"/></clipPath><clipPath id="a2a70c19fe"><path d="M 59.171875 160.527344 L 315.671875 160.527344 L 315.671875 292 L 59.171875 292 Z M 59.171875 160.527344 " clip-rule="nonzero"/></clipPath><clipPath id="dd368beb6d"><path d="M 54.617188 145.347656 L 321.628906 145.347656 L 321.628906 197.117188 L 54.617188 197.117188 Z M 54.617188 145.347656 " clip-rule="nonzero"/></clipPath><clipPath id="521d747370"><path d="M 160.644531 160.152344 L 172.210938 160.152344 L 172.210938 165 L 160.644531 165 Z M 160.644531 160.152344 " clip-rule="nonzero"/></clipPath><clipPath id="7f3a865bf2"><path d="M 162.976562 160.199219 C 171.449219 160.726562 172.199219 161.699219 172.199219 162.449219 C 172.199219 163.199219 171.226562 164.398438 170.476562 164.625 C 169.875 164.851562 168.824219 164.625 168.375 164.175781 C 167.851562 163.726562 167.550781 162.148438 167.773438 161.476562 C 168 160.875 168.824219 160.199219 169.5 160.199219 C 170.25 160.125 171.675781 160.800781 171.976562 161.476562 C 172.273438 162.148438 172.125 163.574219 171.375 164.175781 C 170.101562 165.300781 164.625 165 162.976562 164.773438 C 162.226562 164.625 161.773438 164.550781 161.398438 164.175781 C 161.023438 163.875 160.726562 163.273438 160.648438 162.75 C 160.648438 162.148438 161.023438 161.175781 161.398438 160.726562 C 161.773438 160.351562 162.976562 160.199219 162.976562 160.199219 " clip-rule="nonzero"/></clipPath></defs><g clip-path="url(#313f4d6dc6)"><g clip-path="url(#a6d19d1592)"><path fill="#ffffff" d="M 48.980469 28.507812 L 327.03125 28.507812 L 327.03125 302.28125 L 48.980469 302.28125 Z M 48.980469 28.507812 " fill-opacity="1" fill-rule="nonzero"/></g></g><g clip-path="url(#fe566f07e6)"><path fill="#29741d" d="M 316.828125 169.230469 L 60.480469 169.230469 C 61.597656 123.511719 79.214844 86.886719 116.863281 61.894531 C 160.964844 32.617188 207.632812 31.085938 253.367188 57.609375 C 295.128906 81.832031 315.027344 120.003906 316.835938 169.226562 Z M 316.828125 169.230469 " fill-opacity="1" fill-rule="nonzero"/></g><g clip-path="url(#a2a70c19fe)"><path fill="#29741d" d="M 59.324219 160.980469 L 315.671875 160.980469 C 314.558594 206.695312 296.9375 243.320312 259.292969 268.316406 C 215.191406 297.589844 168.519531 299.125 122.789062 272.601562 C 81.027344 248.375 61.128906 210.203125 59.320312 160.984375 Z M 59.324219 160.980469 " fill-opacity="1" fill-rule="nonzero"/></g><g clip-path="url(#dd368beb6d)"><path fill="#ffffff" d="M 54.617188 145.347656 L 321.539062 145.347656 L 321.539062 197.117188 L 54.617188 197.117188 Z M 54.617188 145.347656 " fill-opacity="1" fill-rule="nonzero"/></g><g fill="#ffffff" fill-opacity="1"><g transform="translate(89.36241, 138.82502)"><g><path d="M 5.125 0 C 4.257812 0 3.664062 -0.160156 3.34375 -0.484375 C 3.019531 -0.804688 2.859375 -1.382812 2.859375 -2.21875 L 2.859375 -36.125 C 2.859375 -36.957031 3.019531 -37.535156 3.34375 -37.859375 C 3.664062 -38.179688 4.257812 -38.34375 5.125 -38.34375 L 10.203125 -38.34375 C 11.140625 -38.34375 11.820312 -38.242188 12.25 -38.046875 C 12.6875 -37.847656 13.066406 -37.390625 13.390625 -36.671875 L 22.296875 -19.21875 L 31.21875 -36.609375 C 31.570312 -37.367188 31.9375 -37.847656 32.3125 -38.046875 C 32.695312 -38.242188 33.335938 -38.34375 34.234375 -38.34375 L 39.640625 -38.34375 C 40.503906 -38.34375 41.101562 -38.179688 41.4375 -37.859375 C 41.78125 -37.535156 41.953125 -36.957031 41.953125 -36.125 L 41.953125 -2.21875 C 41.953125 -1.382812 41.78125 -0.804688 41.4375 -0.484375 C 41.101562 -0.160156 40.503906 0 39.640625 0 L 33.75 0 C 32.925781 0 32.34375 -0.160156 32 -0.484375 C 31.65625 -0.804688 31.484375 -1.382812 31.484375 -2.21875 L 31.484375 -9.984375 C 31.484375 -11.171875 31.535156 -12.394531 31.640625 -13.65625 C 31.753906 -14.914062 31.976562 -16.382812 32.3125 -18.0625 C 32.65625 -19.738281 33.171875 -21.765625 33.859375 -24.140625 L 33.3125 -24.140625 C 33.132812 -23.566406 32.820312 -22.703125 32.375 -21.546875 C 31.925781 -20.390625 31.457031 -19.226562 30.96875 -18.0625 C 30.476562 -16.894531 30.035156 -15.929688 29.640625 -15.171875 L 26.5625 -9.078125 C 26.3125 -8.535156 26.003906 -8.144531 25.640625 -7.90625 C 25.285156 -7.675781 24.75 -7.5625 24.03125 -7.5625 L 20.40625 -7.5625 C 19.6875 -7.5625 19.144531 -7.664062 18.78125 -7.875 C 18.425781 -8.09375 18.101562 -8.492188 17.8125 -9.078125 L 14.640625 -15.171875 C 14.273438 -15.890625 13.859375 -16.820312 13.390625 -17.96875 C 12.921875 -19.125 12.5 -20.28125 12.125 -21.4375 C 11.75 -22.59375 11.46875 -23.492188 11.28125 -24.140625 L 10.75 -24.140625 C 11.394531 -21.546875 11.878906 -19.429688 12.203125 -17.796875 C 12.523438 -16.160156 12.726562 -14.753906 12.8125 -13.578125 C 12.90625 -12.410156 12.953125 -11.195312 12.953125 -9.9375 L 12.953125 -2.21875 C 12.953125 -1.382812 12.78125 -0.804688 12.4375 -0.484375 C 12.101562 -0.160156 11.503906 0 10.640625 0 Z M 5.125 0 "/></g></g></g><g fill="#ffffff" fill-opacity="1"><g transform="translate(134.128421, 138.82502)"><g><path d="M 13.234375 -40.875 C 12.585938 -40.695312 12.082031 -40.609375 11.71875 -40.609375 C 11.351562 -40.609375 11.03125 -40.785156 10.75 -41.140625 L 9.28125 -42.9375 C 8.851562 -43.4375 8.644531 -43.835938 8.65625 -44.140625 C 8.675781 -44.453125 8.921875 -44.734375 9.390625 -44.984375 L 17.015625 -49.359375 C 17.617188 -49.710938 18.226562 -49.925781 18.84375 -50 C 19.457031 -50.070312 20.035156 -49.800781 20.578125 -49.1875 L 23.328125 -46.0625 C 23.828125 -45.5625 24.066406 -45.140625 24.046875 -44.796875 C 24.035156 -44.453125 23.707031 -44.15625 23.0625 -43.90625 Z M 5.125 0 C 4.257812 0 3.664062 -0.171875 3.34375 -0.515625 C 3.019531 -0.859375 2.859375 -1.441406 2.859375 -2.265625 L 2.859375 -36.078125 C 2.859375 -36.898438 3.019531 -37.484375 3.34375 -37.828125 C 3.664062 -38.171875 4.257812 -38.34375 5.125 -38.34375 L 27.75 -38.34375 C 28.613281 -38.34375 29.21875 -38.171875 29.5625 -37.828125 C 29.90625 -37.484375 30.078125 -36.898438 30.078125 -36.078125 L 30.078125 -31.21875 C 30.078125 -30.351562 29.90625 -29.753906 29.5625 -29.421875 C 29.21875 -29.097656 28.613281 -28.9375 27.75 -28.9375 L 13.5 -28.9375 L 13.5 -24.078125 L 24.890625 -24.078125 C 25.753906 -24.078125 26.359375 -23.90625 26.703125 -23.5625 C 27.046875 -23.226562 27.21875 -22.628906 27.21875 -21.765625 L 27.21875 -16.953125 C 27.21875 -16.085938 27.046875 -15.484375 26.703125 -15.140625 C 26.359375 -14.804688 25.753906 -14.640625 24.890625 -14.640625 L 13.5 -14.640625 L 13.5 -9.453125 L 28.234375 -9.453125 C 29.066406 -9.453125 29.65625 -9.289062 30 -8.96875 C 30.34375 -8.644531 30.515625 -8.050781 30.515625 -7.1875 L 30.515625 -2.265625 C 30.515625 -1.441406 30.34375 -0.859375 30 -0.515625 C 29.65625 -0.171875 29.066406 0 28.234375 0 Z M 5.125 0 "/></g></g></g><g fill="#ffffff" fill-opacity="1"><g transform="translate(166.096436, 138.82502)"><g><path d="M 1.734375 0 C 0.941406 0 0.445312 -0.210938 0.25 -0.640625 C 0.0507812 -1.078125 0.164062 -1.617188 0.59375 -2.265625 L 11.71875 -19.546875 L 1.140625 -36.1875 C 0.742188 -36.789062 0.632812 -37.300781 0.8125 -37.71875 C 0.988281 -38.132812 1.457031 -38.34375 2.21875 -38.34375 L 8.640625 -38.34375 C 10.003906 -38.34375 10.960938 -38.234375 11.515625 -38.015625 C 12.078125 -37.796875 12.613281 -37.273438 13.125 -36.453125 L 17.984375 -28.078125 L 22.78125 -36.453125 C 23.289062 -37.347656 23.804688 -37.882812 24.328125 -38.0625 C 24.847656 -38.25 25.722656 -38.34375 26.953125 -38.34375 L 33.859375 -38.34375 C 34.609375 -38.34375 35.070312 -38.132812 35.25 -37.71875 C 35.4375 -37.300781 35.332031 -36.789062 34.9375 -36.1875 L 24.25 -19.546875 L 35.484375 -2.265625 C 35.910156 -1.691406 36.03125 -1.171875 35.84375 -0.703125 C 35.664062 -0.234375 35.164062 0 34.34375 0 L 27.4375 0 C 26.5 0 25.769531 -0.0351562 25.25 -0.109375 C 24.726562 -0.179688 24.300781 -0.359375 23.96875 -0.640625 C 23.644531 -0.929688 23.304688 -1.382812 22.953125 -2 L 17.8125 -10.90625 L 12.796875 -2 C 12.472656 -1.457031 12.15625 -1.039062 11.84375 -0.75 C 11.539062 -0.46875 11.128906 -0.269531 10.609375 -0.15625 C 10.085938 -0.0507812 9.34375 0 8.375 0 Z M 1.734375 0 "/></g></g></g><g fill="#ffffff" fill-opacity="1"><g transform="translate(202.168452, 138.82502)"><g><path d="M 5.015625 0 C 4.222656 0 3.664062 -0.160156 3.34375 -0.484375 C 3.019531 -0.804688 2.859375 -1.363281 2.859375 -2.15625 L 2.859375 -36.1875 C 2.859375 -37.007812 3.019531 -37.570312 3.34375 -37.875 C 3.664062 -38.1875 4.222656 -38.34375 5.015625 -38.34375 L 11.34375 -38.34375 C 12.164062 -38.34375 12.726562 -38.1875 13.03125 -37.875 C 13.34375 -37.570312 13.5 -37.007812 13.5 -36.1875 L 13.5 -2.15625 C 13.5 -1.363281 13.34375 -0.804688 13.03125 -0.484375 C 12.726562 -0.160156 12.164062 0 11.34375 0 Z M 5.015625 0 "/></g></g></g><g fill="#ffffff" fill-opacity="1"><g transform="translate(218.530458, 138.82502)"><g><path d="M 18.515625 0.8125 C 13.191406 0.8125 9.097656 -0.535156 6.234375 -3.234375 C 3.367188 -5.941406 1.9375 -9.613281 1.9375 -14.25 L 1.9375 -24.078125 C 1.9375 -28.722656 3.367188 -32.394531 6.234375 -35.09375 C 9.097656 -37.800781 13.191406 -39.15625 18.515625 -39.15625 C 22.691406 -39.15625 26.078125 -38.332031 28.671875 -36.6875 C 31.265625 -35.050781 33.117188 -32.722656 34.234375 -29.703125 C 34.523438 -28.910156 34.5625 -28.296875 34.34375 -27.859375 C 34.125 -27.429688 33.617188 -27.070312 32.828125 -26.78125 L 27.046875 -24.734375 C 26.222656 -24.484375 25.601562 -24.457031 25.1875 -24.65625 C 24.769531 -24.851562 24.421875 -25.363281 24.140625 -26.1875 C 23.671875 -27.414062 23.003906 -28.304688 22.140625 -28.859375 C 21.273438 -29.421875 20.066406 -29.703125 18.515625 -29.703125 C 16.398438 -29.703125 14.878906 -29.242188 13.953125 -28.328125 C 13.035156 -27.410156 12.578125 -26.015625 12.578125 -24.140625 L 12.578125 -14.203125 C 12.578125 -12.328125 13.035156 -10.929688 13.953125 -10.015625 C 14.878906 -9.097656 16.398438 -8.640625 18.515625 -8.640625 C 20.035156 -8.640625 21.242188 -8.9375 22.140625 -9.53125 C 23.035156 -10.125 23.703125 -11 24.140625 -12.15625 C 24.460938 -12.976562 24.828125 -13.5 25.234375 -13.71875 C 25.648438 -13.9375 26.253906 -13.898438 27.046875 -13.609375 L 32.828125 -11.5625 C 33.617188 -11.300781 34.125 -10.945312 34.34375 -10.5 C 34.5625 -10.050781 34.523438 -9.429688 34.234375 -8.640625 C 33.117188 -5.617188 31.265625 -3.285156 28.671875 -1.640625 C 26.078125 -0.00390625 22.691406 0.8125 18.515625 0.8125 Z M 18.515625 0.8125 "/></g></g></g><g fill="#ffffff" fill-opacity="1"><g transform="translate(253.90047, 138.82502)"><g><path d="M 18.515625 0.8125 C 13.191406 0.8125 9.097656 -0.535156 6.234375 -3.234375 C 3.367188 -5.941406 1.9375 -9.613281 1.9375 -14.25 L 1.9375 -24.078125 C 1.9375 -28.722656 3.367188 -32.394531 6.234375 -35.09375 C 9.097656 -37.800781 13.191406 -39.15625 18.515625 -39.15625 C 23.847656 -39.15625 27.941406 -37.800781 30.796875 -35.09375 C 33.660156 -32.394531 35.09375 -28.722656 35.09375 -24.078125 L 35.09375 -14.25 C 35.09375 -9.613281 33.660156 -5.941406 30.796875 -3.234375 C 27.941406 -0.535156 23.847656 0.8125 18.515625 0.8125 Z M 18.515625 -8.640625 C 20.390625 -8.640625 21.835938 -9.078125 22.859375 -9.953125 C 23.890625 -10.835938 24.40625 -12.128906 24.40625 -13.828125 L 24.40625 -24.515625 C 24.40625 -26.203125 23.890625 -27.488281 22.859375 -28.375 C 21.835938 -29.257812 20.390625 -29.703125 18.515625 -29.703125 C 16.648438 -29.703125 15.191406 -29.257812 14.140625 -28.375 C 13.097656 -27.488281 12.578125 -26.203125 12.578125 -24.515625 L 12.578125 -13.828125 C 12.578125 -12.128906 13.097656 -10.835938 14.140625 -9.953125 C 15.191406 -9.078125 16.648438 -8.640625 18.515625 -8.640625 Z M 18.515625 -8.640625 "/></g></g></g><g fill="#ff3131" fill-opacity="1"><g transform="translate(62.564012, 192.254577)"><g><path d="M 20.640625 0.90625 C 14.703125 0.90625 10.140625 -0.597656 6.953125 -3.609375 C 3.765625 -6.617188 2.171875 -10.710938 2.171875 -15.890625 L 2.171875 -26.84375 C 2.171875 -32.007812 3.765625 -36.097656 6.953125 -39.109375 C 10.140625 -42.117188 14.703125 -43.625 20.640625 -43.625 C 25.296875 -43.625 29.066406 -42.710938 31.953125 -40.890625 C 34.835938 -39.066406 36.90625 -36.46875 38.15625 -33.09375 C 38.46875 -32.207031 38.503906 -31.523438 38.265625 -31.046875 C 38.023438 -30.566406 37.460938 -30.164062 36.578125 -29.84375 L 30.140625 -27.5625 C 29.222656 -27.28125 28.53125 -27.25 28.0625 -27.46875 C 27.601562 -27.6875 27.210938 -28.257812 26.890625 -29.1875 C 26.367188 -30.550781 25.625 -31.539062 24.65625 -32.15625 C 23.695312 -32.78125 22.359375 -33.09375 20.640625 -33.09375 C 18.273438 -33.09375 16.578125 -32.582031 15.546875 -31.5625 C 14.523438 -30.539062 14.015625 -28.984375 14.015625 -26.890625 L 14.015625 -15.828125 C 14.015625 -13.742188 14.523438 -12.1875 15.546875 -11.15625 C 16.578125 -10.132812 18.273438 -9.625 20.640625 -9.625 C 22.328125 -9.625 23.671875 -9.953125 24.671875 -10.609375 C 25.671875 -11.273438 26.410156 -12.25 26.890625 -13.53125 C 27.253906 -14.457031 27.664062 -15.039062 28.125 -15.28125 C 28.59375 -15.519531 29.265625 -15.476562 30.140625 -15.15625 L 36.578125 -12.875 C 37.460938 -12.59375 38.023438 -12.203125 38.265625 -11.703125 C 38.503906 -11.203125 38.46875 -10.507812 38.15625 -9.625 C 36.90625 -6.257812 34.835938 -3.660156 31.953125 -1.828125 C 29.066406 -0.00390625 25.296875 0.90625 20.640625 0.90625 Z M 20.640625 0.90625 "/></g></g></g><g fill="#ff3131" fill-opacity="1"><g transform="translate(101.971487, 192.254577)"><g><path d="M 5.71875 0 C 4.75 0 4.082031 -0.1875 3.71875 -0.5625 C 3.363281 -0.945312 3.1875 -1.601562 3.1875 -2.53125 L 3.1875 -40.1875 C 3.1875 -41.113281 3.363281 -41.765625 3.71875 -42.140625 C 4.082031 -42.523438 4.75 -42.71875 5.71875 -42.71875 L 12.515625 -42.71875 C 13.472656 -42.71875 14.132812 -42.523438 14.5 -42.140625 C 14.863281 -41.765625 15.046875 -41.113281 15.046875 -40.1875 L 15.046875 -26.890625 L 26.71875 -26.890625 L 26.71875 -40.1875 C 26.71875 -41.113281 26.90625 -41.765625 27.28125 -42.140625 C 27.664062 -42.523438 28.335938 -42.71875 29.296875 -42.71875 L 36.109375 -42.71875 C 37.023438 -42.71875 37.671875 -42.523438 38.046875 -42.140625 C 38.429688 -41.765625 38.625 -41.113281 38.625 -40.1875 L 38.625 -2.53125 C 38.625 -1.601562 38.429688 -0.945312 38.046875 -0.5625 C 37.671875 -0.1875 37.023438 0 36.109375 0 L 29.296875 0 C 28.335938 0 27.664062 -0.1875 27.28125 -0.5625 C 26.90625 -0.945312 26.71875 -1.601562 26.71875 -2.53125 L 26.71875 -16.421875 L 15.046875 -16.421875 L 15.046875 -2.53125 C 15.046875 -1.601562 14.863281 -0.945312 14.5 -0.5625 C 14.132812 -0.1875 13.472656 0 12.515625 0 Z M 5.71875 0 "/></g></g></g><g fill="#ff3131" fill-opacity="1"><g transform="translate(143.725367, 192.254577)"><g><path d="M 2.046875 0 C 1.117188 0 0.546875 -0.207031 0.328125 -0.625 C 0.109375 -1.050781 0.140625 -1.664062 0.421875 -2.46875 L 14.265625 -40.609375 C 14.578125 -41.492188 14.960938 -42.066406 15.421875 -42.328125 C 15.890625 -42.585938 16.546875 -42.71875 17.390625 -42.71875 L 24.25 -42.71875 C 25.09375 -42.71875 25.753906 -42.585938 26.234375 -42.328125 C 26.710938 -42.066406 27.09375 -41.535156 27.375 -40.734375 L 41.28125 -2.46875 C 41.882812 -0.820312 41.300781 0 39.53125 0 L 33.03125 0 C 31.507812 0 30.4375 -0.1875 29.8125 -0.5625 C 29.1875 -0.945312 28.753906 -1.601562 28.515625 -2.53125 L 27.203125 -6.859375 L 14.078125 -6.859375 L 12.703125 -2.53125 C 12.421875 -1.601562 12 -0.945312 11.4375 -0.5625 C 10.875 -0.1875 9.847656 0 8.359375 0 Z M 16.90625 -16.3125 L 24.4375 -16.3125 L 22.203125 -23.34375 C 21.804688 -24.707031 21.515625 -26.039062 21.328125 -27.34375 C 21.148438 -28.644531 21.03125 -29.71875 20.96875 -30.5625 C 20.90625 -31.40625 20.875 -31.828125 20.875 -31.828125 L 20.28125 -31.828125 C 20.28125 -31.828125 20.269531 -31.40625 20.25 -30.5625 C 20.226562 -29.71875 20.132812 -28.65625 19.96875 -27.375 C 19.8125 -26.09375 19.535156 -24.769531 19.140625 -23.40625 Z M 16.90625 -16.3125 "/></g></g></g><g fill="#ff3131" fill-opacity="1"><g transform="translate(185.358913, 192.254577)"><g><path d="M 5.71875 0 C 4.75 0 4.082031 -0.175781 3.71875 -0.53125 C 3.363281 -0.894531 3.1875 -1.539062 3.1875 -2.46875 L 3.1875 -40.25 C 3.1875 -41.175781 3.363281 -41.816406 3.71875 -42.171875 C 4.082031 -42.535156 4.75 -42.71875 5.71875 -42.71875 L 11.375 -42.71875 C 12.414062 -42.71875 13.175781 -42.609375 13.65625 -42.390625 C 14.132812 -42.171875 14.554688 -41.660156 14.921875 -40.859375 L 24.84375 -21.421875 L 34.78125 -40.796875 C 35.175781 -41.640625 35.582031 -42.171875 36 -42.390625 C 36.425781 -42.609375 37.144531 -42.71875 38.15625 -42.71875 L 44.171875 -42.71875 C 45.128906 -42.71875 45.796875 -42.535156 46.171875 -42.171875 C 46.554688 -41.816406 46.75 -41.175781 46.75 -40.25 L 46.75 -2.46875 C 46.75 -1.539062 46.554688 -0.894531 46.171875 -0.53125 C 45.796875 -0.175781 45.128906 0 44.171875 0 L 37.609375 0 C 36.679688 0 36.023438 -0.175781 35.640625 -0.53125 C 35.265625 -0.894531 35.078125 -1.539062 35.078125 -2.46875 L 35.078125 -11.125 C 35.078125 -12.457031 35.132812 -13.820312 35.25 -15.21875 C 35.375 -16.625 35.625 -18.257812 36 -20.125 C 36.382812 -21.988281 36.960938 -24.242188 37.734375 -26.890625 L 37.125 -26.890625 C 36.925781 -26.253906 36.578125 -25.289062 36.078125 -24 C 35.578125 -22.71875 35.054688 -21.425781 34.515625 -20.125 C 33.972656 -18.820312 33.476562 -17.75 33.03125 -16.90625 L 29.609375 -10.109375 C 29.328125 -9.503906 28.984375 -9.070312 28.578125 -8.8125 C 28.179688 -8.550781 27.582031 -8.421875 26.78125 -8.421875 L 22.75 -8.421875 C 21.945312 -8.421875 21.34375 -8.539062 20.9375 -8.78125 C 20.539062 -9.019531 20.179688 -9.460938 19.859375 -10.109375 L 16.3125 -16.90625 C 15.90625 -17.707031 15.441406 -18.75 14.921875 -20.03125 C 14.398438 -21.320312 13.925781 -22.609375 13.5 -23.890625 C 13.082031 -25.171875 12.773438 -26.171875 12.578125 -26.890625 L 11.96875 -26.890625 C 12.695312 -24.003906 13.238281 -21.648438 13.59375 -19.828125 C 13.957031 -18.003906 14.1875 -16.4375 14.28125 -15.125 C 14.382812 -13.820312 14.4375 -12.472656 14.4375 -11.078125 L 14.4375 -2.46875 C 14.4375 -1.539062 14.242188 -0.894531 13.859375 -0.53125 C 13.484375 -0.175781 12.816406 0 11.859375 0 Z M 5.71875 0 "/></g></g></g><g fill="#ff3131" fill-opacity="1"><g transform="translate(235.23494, 192.254577)"><g><path d="M 5.71875 0 C 4.75 0 4.082031 -0.1875 3.71875 -0.5625 C 3.363281 -0.945312 3.1875 -1.601562 3.1875 -2.53125 L 3.1875 -40.1875 C 3.1875 -41.113281 3.363281 -41.765625 3.71875 -42.140625 C 4.082031 -42.523438 4.75 -42.71875 5.71875 -42.71875 L 22.328125 -42.71875 C 27.015625 -42.71875 30.769531 -41.40625 33.59375 -38.78125 C 36.425781 -36.15625 37.84375 -32.453125 37.84375 -27.671875 C 37.84375 -22.941406 36.4375 -19.28125 33.625 -16.6875 C 30.820312 -14.101562 27.09375 -12.8125 22.4375 -12.8125 L 15.046875 -12.8125 L 15.046875 -2.53125 C 15.046875 -1.601562 14.863281 -0.945312 14.5 -0.5625 C 14.132812 -0.1875 13.472656 0 12.515625 0 Z M 15.046875 -23.34375 L 21 -23.34375 C 22.40625 -23.34375 23.507812 -23.742188 24.3125 -24.546875 C 25.113281 -25.347656 25.515625 -26.429688 25.515625 -27.796875 C 25.515625 -29.117188 25.125 -30.191406 24.34375 -31.015625 C 23.5625 -31.835938 22.445312 -32.25 21 -32.25 L 15.046875 -32.25 Z M 15.046875 -23.34375 "/></g></g></g><g fill="#ff3131" fill-opacity="1"><g transform="translate(274.401757, 192.254577)"><g><path d="M 19.1875 0.90625 C 14.695312 0.90625 10.945312 0.132812 7.9375 -1.40625 C 4.9375 -2.957031 2.851562 -5.296875 1.6875 -8.421875 C 1.40625 -9.347656 1.382812 -10.050781 1.625 -10.53125 C 1.863281 -11.007812 2.425781 -11.410156 3.3125 -11.734375 L 8.96875 -13.78125 C 9.882812 -14.101562 10.582031 -14.179688 11.0625 -14.015625 C 11.550781 -13.859375 12.035156 -13.335938 12.515625 -12.453125 C 13.597656 -10.328125 15.863281 -9.265625 19.3125 -9.265625 C 21.320312 -9.265625 22.90625 -9.515625 24.0625 -10.015625 C 25.226562 -10.515625 25.8125 -11.410156 25.8125 -12.703125 C 25.8125 -13.898438 25.128906 -14.71875 23.765625 -15.15625 C 22.398438 -15.601562 20.71875 -15.96875 18.71875 -16.25 C 16.945312 -16.488281 15.078125 -16.804688 13.109375 -17.203125 C 11.148438 -17.609375 9.316406 -18.269531 7.609375 -19.1875 C 5.898438 -20.113281 4.503906 -21.4375 3.421875 -23.15625 C 2.347656 -24.882812 1.8125 -27.210938 1.8125 -30.140625 C 1.8125 -32.796875 2.5 -35.132812 3.875 -37.15625 C 5.257812 -39.175781 7.273438 -40.757812 9.921875 -41.90625 C 12.578125 -43.050781 15.828125 -43.625 19.671875 -43.625 C 24.128906 -43.625 27.691406 -42.941406 30.359375 -41.578125 C 33.023438 -40.210938 35.0625 -38.085938 36.46875 -35.203125 C 36.90625 -34.316406 37.003906 -33.625 36.765625 -33.125 C 36.523438 -32.625 35.941406 -32.191406 35.015625 -31.828125 L 29.0625 -29.25 C 28.21875 -28.882812 27.570312 -28.78125 27.125 -28.9375 C 26.6875 -29.101562 26.25 -29.625 25.8125 -30.5 C 25.207031 -31.664062 24.382812 -32.476562 23.34375 -32.9375 C 22.300781 -33.40625 21.078125 -33.640625 19.671875 -33.640625 C 17.628906 -33.640625 16.164062 -33.378906 15.28125 -32.859375 C 14.394531 -32.335938 13.953125 -31.550781 13.953125 -30.5 C 13.953125 -29.664062 14.3125 -29.003906 15.03125 -28.515625 C 15.757812 -28.035156 16.710938 -27.6875 17.890625 -27.46875 C 19.078125 -27.25 20.394531 -27.039062 21.84375 -26.84375 C 23.601562 -26.59375 25.414062 -26.25 27.28125 -25.8125 C 29.144531 -25.375 30.867188 -24.679688 32.453125 -23.734375 C 34.046875 -22.796875 35.34375 -21.453125 36.34375 -19.703125 C 37.34375 -17.960938 37.84375 -15.664062 37.84375 -12.8125 C 37.84375 -9.882812 37.03125 -7.394531 35.40625 -5.34375 C 33.78125 -3.300781 31.5625 -1.75 28.75 -0.6875 C 25.945312 0.375 22.757812 0.90625 19.1875 0.90625 Z M 19.1875 0.90625 "/></g></g></g><g clip-path="url(#521d747370)"><g clip-path="url(#7f3a865bf2)"><path fill="#ff3131" d="M 157.648438 157.199219 L 175.207031 157.199219 L 175.207031 167.851562 L 157.648438 167.851562 Z M 157.648438 157.199219 " fill-opacity="1" fill-rule="nonzero"/></g></g></svg>