<svg xmlns="http://www.w3.org/2000/svg" xmlns:xlink="http://www.w3.org/1999/xlink" width="500" zoomAndPan="magnify" viewBox="0 0 375 374.999991" height="500" preserveAspectRatio="xMidYMid meet" version="1.0"><defs><g/><clipPath id="344d062c24"><path d="M 48.980469 28.507812 L 328 28.507812 L 328 302.28125 L 48.980469 302.28125 Z M 48.980469 28.507812 " clip-rule="nonzero"/></clipPath><clipPath id="3fd3fb6467"><path d="M 188.191406 28.507812 C 111.304688 28.507812 48.980469 89.796875 48.980469 165.394531 C 48.980469 240.996094 111.304688 302.28125 188.191406 302.28125 C 265.074219 302.28125 327.402344 240.996094 327.402344 165.394531 C 327.402344 89.796875 265.074219 28.507812 188.191406 28.507812 Z M 188.191406 28.507812 " clip-rule="nonzero"/></clipPath><clipPath id="b6fa217260"><path d="M 60.480469 38 L 316.980469 38 L 316.980469 169.683594 L 60.480469 169.683594 Z M 60.480469 38 " clip-rule="nonzero"/></clipPath><clipPath id="0b5275a554"><path d="M 59.171875 160.527344 L 315.671875 160.527344 L 315.671875 292 L 59.171875 292 Z M 59.171875 160.527344 " clip-rule="nonzero"/></clipPath><clipPath id="0aaebfe04b"><path d="M 54.617188 145.347656 L 321.628906 145.347656 L 321.628906 197.117188 L 54.617188 197.117188 Z M 54.617188 145.347656 " clip-rule="nonzero"/></clipPath></defs><g clip-path="url(#344d062c24)"><g clip-path="url(#3fd3fb6467)"><path fill="#ffffff" d="M 48.980469 28.507812 L 327.03125 28.507812 L 327.03125 302.28125 L 48.980469 302.28125 Z M 48.980469 28.507812 " fill-opacity="1" fill-rule="nonzero"/></g></g><g clip-path="url(#b6fa217260)"><path fill="#29741d" d="M 316.828125 169.230469 L 60.480469 169.230469 C 61.597656 123.511719 79.214844 86.886719 116.863281 61.894531 C 160.964844 32.617188 207.632812 31.085938 253.367188 57.609375 C 295.128906 81.832031 315.027344 120.003906 316.835938 169.226562 Z M 316.828125 169.230469 " fill-opacity="1" fill-rule="nonzero"/></g><g clip-path="url(#0b5275a554)"><path fill="#29741d" d="M 59.324219 160.980469 L 315.671875 160.980469 C 314.558594 206.695312 296.9375 243.320312 259.292969 268.316406 C 215.191406 297.589844 168.519531 299.125 122.789062 272.601562 C 81.027344 248.375 61.128906 210.203125 59.320312 160.984375 Z M 59.324219 160.980469 " fill-opacity="1" fill-rule="nonzero"/></g><g clip-path="url(#0aaebfe04b)"><path fill="#ffffff" d="M 54.617188 145.347656 L 321.539062 145.347656 L 321.539062 197.117188 L 54.617188 197.117188 Z M 54.617188 145.347656 " fill-opacity="1" fill-rule="nonzero"/></g><g fill="#ffffff" fill-opacity="1"><g transform="translate(70.290937, 135.663733)"><g><path d="M 3.96875 0 C 3.289062 0 2.828125 -0.128906 2.578125 -0.390625 C 2.328125 -0.660156 2.203125 -1.113281 2.203125 -1.75 L 2.203125 -27.859375 C 2.203125 -28.492188 2.328125 -28.941406 2.578125 -29.203125 C 2.828125 -29.472656 3.289062 -29.609375 3.96875 -29.609375 L 21.4375 -29.609375 C 22.101562 -29.609375 22.566406 -29.472656 22.828125 -29.203125 C 23.097656 -28.941406 23.234375 -28.492188 23.234375 -27.859375 L 23.234375 -24.109375 C 23.234375 -23.441406 23.097656 -22.984375 22.828125 -22.734375 C 22.566406 -22.484375 22.101562 -22.359375 21.4375 -22.359375 L 10.421875 -22.359375 L 10.421875 -17.46875 L 19.21875 -17.46875 C 19.882812 -17.46875 20.347656 -17.335938 20.609375 -17.078125 C 20.878906 -16.816406 21.015625 -16.363281 21.015625 -15.71875 L 21.015625 -11.96875 C 21.015625 -11.300781 20.878906 -10.84375 20.609375 -10.59375 C 20.347656 -10.34375 19.882812 -10.21875 19.21875 -10.21875 L 10.421875 -10.21875 L 10.421875 -1.75 C 10.421875 -1.113281 10.296875 -0.660156 10.046875 -0.390625 C 9.796875 -0.128906 9.335938 0 8.671875 0 Z M 3.96875 0 "/></g></g></g><g fill="#ffffff" fill-opacity="1"><g transform="translate(94.43251, 135.663733)"><g><path d="M 14.515625 0.625 C 10.398438 0.625 7.273438 -0.414062 5.140625 -2.5 C 3.015625 -4.582031 1.953125 -7.363281 1.953125 -10.84375 L 1.953125 -27.859375 C 1.953125 -28.492188 2.082031 -28.941406 2.34375 -29.203125 C 2.613281 -29.472656 3.070312 -29.609375 3.71875 -29.609375 L 8.421875 -29.609375 C 9.085938 -29.609375 9.550781 -29.472656 9.8125 -29.203125 C 10.082031 -28.941406 10.21875 -28.492188 10.21875 -27.859375 L 10.21875 -10.515625 C 10.21875 -9.285156 10.570312 -8.335938 11.28125 -7.671875 C 11.988281 -7.003906 13.066406 -6.671875 14.515625 -6.671875 C 15.960938 -6.671875 17.046875 -7.003906 17.765625 -7.671875 C 18.484375 -8.335938 18.84375 -9.285156 18.84375 -10.515625 L 18.84375 -27.859375 C 18.84375 -28.492188 18.96875 -28.941406 19.21875 -29.203125 C 19.46875 -29.472656 19.925781 -29.609375 20.59375 -29.609375 L 25.3125 -29.609375 C 25.976562 -29.609375 26.4375 -29.472656 26.6875 -29.203125 C 26.9375 -28.941406 27.0625 -28.492188 27.0625 -27.859375 L 27.0625 -10.84375 C 27.0625 -7.363281 26.003906 -4.582031 23.890625 -2.5 C 21.773438 -0.414062 18.648438 0.625 14.515625 0.625 Z M 14.515625 0.625 "/></g></g></g><g fill="#ffffff" fill-opacity="1"><g transform="translate(123.452436, 135.663733)"><g><path d="M 3.96875 0 C 3.289062 0 2.828125 -0.128906 2.578125 -0.390625 C 2.328125 -0.660156 2.203125 -1.113281 2.203125 -1.75 L 2.203125 -27.859375 C 2.203125 -28.492188 2.328125 -28.941406 2.578125 -29.203125 C 2.828125 -29.472656 3.289062 -29.609375 3.96875 -29.609375 L 8.875 -29.609375 C 9.351562 -29.609375 9.71875 -29.546875 9.96875 -29.421875 C 10.21875 -29.296875 10.441406 -29.082031 10.640625 -28.78125 L 17.46875 -18.0625 C 18.082031 -17.113281 18.5625 -16.265625 18.90625 -15.515625 C 19.257812 -14.765625 19.585938 -14 19.890625 -13.21875 C 20.191406 -12.4375 20.554688 -11.519531 20.984375 -10.46875 L 21.3125 -10.46875 C 20.863281 -11.882812 20.5 -13.113281 20.21875 -14.15625 C 19.945312 -15.195312 19.75 -16.242188 19.625 -17.296875 C 19.5 -18.359375 19.4375 -19.585938 19.4375 -20.984375 L 19.4375 -27.859375 C 19.4375 -28.492188 19.5625 -28.941406 19.8125 -29.203125 C 20.0625 -29.472656 20.519531 -29.609375 21.1875 -29.609375 L 25.4375 -29.609375 C 26.070312 -29.609375 26.519531 -29.472656 26.78125 -29.203125 C 27.050781 -28.941406 27.1875 -28.492188 27.1875 -27.859375 L 27.1875 -1.75 C 27.1875 -1.113281 27.050781 -0.660156 26.78125 -0.390625 C 26.519531 -0.128906 26.070312 0 25.4375 0 L 20.71875 0 C 19.945312 0 19.378906 -0.273438 19.015625 -0.828125 L 12.59375 -10.765625 C 11.976562 -11.734375 11.46875 -12.625 11.0625 -13.4375 C 10.664062 -14.257812 10.304688 -15.132812 9.984375 -16.0625 C 9.671875 -17 9.316406 -18.082031 8.921875 -19.3125 L 8.59375 -19.3125 C 8.894531 -18 9.144531 -16.828125 9.34375 -15.796875 C 9.539062 -14.773438 9.691406 -13.703125 9.796875 -12.578125 C 9.910156 -11.453125 9.96875 -10.109375 9.96875 -8.546875 L 9.96875 -1.75 C 9.96875 -1.113281 9.832031 -0.660156 9.5625 -0.390625 C 9.300781 -0.128906 8.835938 0 8.171875 0 Z M 3.96875 0 "/></g></g></g><g fill="#ffffff" fill-opacity="1"><g transform="translate(152.805923, 135.663733)"><g><path d="M 3.96875 0 C 3.289062 0 2.828125 -0.128906 2.578125 -0.390625 C 2.328125 -0.660156 2.203125 -1.113281 2.203125 -1.75 L 2.203125 -27.859375 C 2.203125 -28.492188 2.328125 -28.941406 2.578125 -29.203125 C 2.828125 -29.472656 3.289062 -29.609375 3.96875 -29.609375 L 14.140625 -29.609375 C 18.253906 -29.609375 21.414062 -28.566406 23.625 -26.484375 C 25.832031 -24.398438 26.9375 -21.5625 26.9375 -17.96875 L 26.9375 -11.671875 C 26.9375 -8.085938 25.832031 -5.242188 23.625 -3.140625 C 21.414062 -1.046875 18.253906 0 14.140625 0 Z M 10.421875 -7.296875 L 13.84375 -7.296875 C 15.539062 -7.296875 16.769531 -7.675781 17.53125 -8.4375 C 18.300781 -9.207031 18.6875 -10.328125 18.6875 -11.796875 L 18.6875 -17.8125 C 18.6875 -19.28125 18.300781 -20.40625 17.53125 -21.1875 C 16.769531 -21.96875 15.539062 -22.359375 13.84375 -22.359375 L 10.421875 -22.359375 Z M 10.421875 -7.296875 "/></g></g></g><g fill="#ffffff" fill-opacity="1"><g transform="translate(180.157919, 135.663733)"><g><path d="M 1.421875 0 C 0.773438 0 0.375 -0.144531 0.21875 -0.4375 C 0.0703125 -0.726562 0.0976562 -1.148438 0.296875 -1.703125 L 9.890625 -28.15625 C 10.109375 -28.757812 10.375 -29.148438 10.6875 -29.328125 C 11.007812 -29.515625 11.460938 -29.609375 12.046875 -29.609375 L 16.8125 -29.609375 C 17.394531 -29.609375 17.851562 -29.515625 18.1875 -29.328125 C 18.519531 -29.148438 18.78125 -28.785156 18.96875 -28.234375 L 28.609375 -1.703125 C 29.023438 -0.566406 28.625 0 27.40625 0 L 22.890625 0 C 21.835938 0 21.09375 -0.128906 20.65625 -0.390625 C 20.226562 -0.660156 19.929688 -1.113281 19.765625 -1.75 L 18.84375 -4.75 L 9.765625 -4.75 L 8.796875 -1.75 C 8.597656 -1.113281 8.304688 -0.660156 7.921875 -0.390625 C 7.535156 -0.128906 6.828125 0 5.796875 0 Z M 11.71875 -11.296875 L 16.9375 -11.296875 L 15.390625 -16.1875 C 15.109375 -17.125 14.90625 -18.046875 14.78125 -18.953125 C 14.65625 -19.859375 14.570312 -20.601562 14.53125 -21.1875 C 14.488281 -21.769531 14.46875 -22.0625 14.46875 -22.0625 L 14.046875 -22.0625 C 14.046875 -22.0625 14.039062 -21.769531 14.03125 -21.1875 C 14.019531 -20.601562 13.957031 -19.863281 13.84375 -18.96875 C 13.726562 -18.082031 13.535156 -17.164062 13.265625 -16.21875 Z M 11.71875 -11.296875 "/></g></g></g><g fill="#ffffff" fill-opacity="1"><g transform="translate(208.051963, 135.663733)"><g><path d="M 14.296875 0.625 C 10.179688 0.625 7.019531 -0.414062 4.8125 -2.5 C 2.601562 -4.582031 1.5 -7.421875 1.5 -11.015625 L 1.5 -18.59375 C 1.5 -22.1875 2.601562 -25.023438 4.8125 -27.109375 C 7.019531 -29.191406 10.179688 -30.234375 14.296875 -30.234375 C 17.523438 -30.234375 20.140625 -29.597656 22.140625 -28.328125 C 24.140625 -27.066406 25.570312 -25.269531 26.4375 -22.9375 C 26.664062 -22.320312 26.691406 -21.847656 26.515625 -21.515625 C 26.347656 -21.179688 25.960938 -20.90625 25.359375 -20.6875 L 20.890625 -19.09375 C 20.253906 -18.90625 19.773438 -18.882812 19.453125 -19.03125 C 19.128906 -19.1875 18.859375 -19.582031 18.640625 -20.21875 C 18.273438 -21.164062 17.757812 -21.851562 17.09375 -22.28125 C 16.425781 -22.71875 15.492188 -22.9375 14.296875 -22.9375 C 12.660156 -22.9375 11.488281 -22.582031 10.78125 -21.875 C 10.070312 -21.164062 9.71875 -20.085938 9.71875 -18.640625 L 9.71875 -10.96875 C 9.71875 -9.519531 10.070312 -8.441406 10.78125 -7.734375 C 11.488281 -7.023438 12.660156 -6.671875 14.296875 -6.671875 C 15.472656 -6.671875 16.40625 -6.898438 17.09375 -7.359375 C 17.789062 -7.816406 18.304688 -8.492188 18.640625 -9.390625 C 18.890625 -10.023438 19.171875 -10.425781 19.484375 -10.59375 C 19.804688 -10.757812 20.273438 -10.734375 20.890625 -10.515625 L 25.359375 -8.921875 C 25.960938 -8.722656 26.347656 -8.453125 26.515625 -8.109375 C 26.691406 -7.765625 26.664062 -7.285156 26.4375 -6.671875 C 25.570312 -4.335938 24.140625 -2.535156 22.140625 -1.265625 C 20.140625 -0.00390625 17.523438 0.625 14.296875 0.625 Z M 14.296875 0.625 "/></g></g></g><g fill="#ffffff" fill-opacity="1"><g transform="translate(235.362383, 135.663733)"><g><path d="M 3.875 0 C 3.257812 0 2.828125 -0.125 2.578125 -0.375 C 2.328125 -0.625 2.203125 -1.054688 2.203125 -1.671875 L 2.203125 -27.9375 C 2.203125 -28.582031 2.328125 -29.019531 2.578125 -29.25 C 2.828125 -29.488281 3.257812 -29.609375 3.875 -29.609375 L 8.75 -29.609375 C 9.394531 -29.609375 9.832031 -29.488281 10.0625 -29.25 C 10.300781 -29.019531 10.421875 -28.582031 10.421875 -27.9375 L 10.421875 -1.671875 C 10.421875 -1.054688 10.300781 -0.625 10.0625 -0.375 C 9.832031 -0.125 9.394531 0 8.75 0 Z M 3.875 0 "/></g></g></g><g fill="#ffffff" fill-opacity="1"><g transform="translate(247.996052, 135.663733)"><g><path d="M 11.796875 -31.984375 C 11.296875 -31.847656 10.90625 -31.78125 10.625 -31.78125 C 10.351562 -31.78125 10.109375 -31.914062 9.890625 -32.1875 L 8.75 -33.578125 C 8.414062 -33.960938 8.253906 -34.269531 8.265625 -34.5 C 8.285156 -34.738281 8.476562 -34.957031 8.84375 -35.15625 L 14.71875 -38.53125 C 15.195312 -38.8125 15.671875 -38.976562 16.140625 -39.03125 C 16.609375 -39.09375 17.050781 -38.882812 17.46875 -38.40625 L 19.59375 -35.984375 C 19.988281 -35.597656 20.175781 -35.269531 20.15625 -35 C 20.144531 -34.738281 19.890625 -34.515625 19.390625 -34.328125 Z M 14.296875 0.625 C 10.179688 0.625 7.019531 -0.414062 4.8125 -2.5 C 2.601562 -4.582031 1.5 -7.421875 1.5 -11.015625 L 1.5 -18.59375 C 1.5 -22.1875 2.601562 -25.023438 4.8125 -27.109375 C 7.019531 -29.191406 10.179688 -30.234375 14.296875 -30.234375 C 18.410156 -30.234375 21.570312 -29.191406 23.78125 -27.109375 C 26 -25.023438 27.109375 -22.1875 27.109375 -18.59375 L 27.109375 -11.015625 C 27.109375 -7.421875 26 -4.582031 23.78125 -2.5 C 21.570312 -0.414062 18.410156 0.625 14.296875 0.625 Z M 14.296875 -6.671875 C 15.742188 -6.671875 16.863281 -7.007812 17.65625 -7.6875 C 18.445312 -8.375 18.84375 -9.367188 18.84375 -10.671875 L 18.84375 -18.9375 C 18.84375 -20.238281 18.445312 -21.226562 17.65625 -21.90625 C 16.863281 -22.59375 15.742188 -22.9375 14.296875 -22.9375 C 12.859375 -22.9375 11.734375 -22.59375 10.921875 -21.90625 C 10.117188 -21.226562 9.71875 -20.238281 9.71875 -18.9375 L 9.71875 -10.671875 C 9.71875 -9.367188 10.117188 -8.375 10.921875 -7.6875 C 11.734375 -7.007812 12.859375 -6.671875 14.296875 -6.671875 Z M 14.296875 -6.671875 "/></g></g></g><g fill="#ffffff" fill-opacity="1"><g transform="translate(276.599013, 135.663733)"><g><path d="M 3.96875 0 C 3.289062 0 2.828125 -0.128906 2.578125 -0.390625 C 2.328125 -0.660156 2.203125 -1.113281 2.203125 -1.75 L 2.203125 -27.859375 C 2.203125 -28.492188 2.328125 -28.941406 2.578125 -29.203125 C 2.828125 -29.472656 3.289062 -29.609375 3.96875 -29.609375 L 8.875 -29.609375 C 9.351562 -29.609375 9.71875 -29.546875 9.96875 -29.421875 C 10.21875 -29.296875 10.441406 -29.082031 10.640625 -28.78125 L 17.46875 -18.0625 C 18.082031 -17.113281 18.5625 -16.265625 18.90625 -15.515625 C 19.257812 -14.765625 19.585938 -14 19.890625 -13.21875 C 20.191406 -12.4375 20.554688 -11.519531 20.984375 -10.46875 L 21.3125 -10.46875 C 20.863281 -11.882812 20.5 -13.113281 20.21875 -14.15625 C 19.945312 -15.195312 19.75 -16.242188 19.625 -17.296875 C 19.5 -18.359375 19.4375 -19.585938 19.4375 -20.984375 L 19.4375 -27.859375 C 19.4375 -28.492188 19.5625 -28.941406 19.8125 -29.203125 C 20.0625 -29.472656 20.519531 -29.609375 21.1875 -29.609375 L 25.4375 -29.609375 C 26.070312 -29.609375 26.519531 -29.472656 26.78125 -29.203125 C 27.050781 -28.941406 27.1875 -28.492188 27.1875 -27.859375 L 27.1875 -1.75 C 27.1875 -1.113281 27.050781 -0.660156 26.78125 -0.390625 C 26.519531 -0.128906 26.070312 0 25.4375 0 L 20.71875 0 C 19.945312 0 19.378906 -0.273438 19.015625 -0.828125 L 12.59375 -10.765625 C 11.976562 -11.734375 11.46875 -12.625 11.0625 -13.4375 C 10.664062 -14.257812 10.304688 -15.132812 9.984375 -16.0625 C 9.671875 -17 9.316406 -18.082031 8.921875 -19.3125 L 8.59375 -19.3125 C 8.894531 -18 9.144531 -16.828125 9.34375 -15.796875 C 9.539062 -14.773438 9.691406 -13.703125 9.796875 -12.578125 C 9.910156 -11.453125 9.96875 -10.109375 9.96875 -8.546875 L 9.96875 -1.75 C 9.96875 -1.113281 9.832031 -0.660156 9.5625 -0.390625 C 9.300781 -0.128906 8.835938 0 8.171875 0 Z M 3.96875 0 "/></g></g></g><g fill="#ff3131" fill-opacity="1"><g transform="translate(105.406169, 185.849388)"><g><path d="M 4.1875 0 C 3.519531 0 3.050781 -0.132812 2.78125 -0.40625 C 2.519531 -0.675781 2.390625 -1.140625 2.390625 -1.796875 L 2.390625 -30.15625 C 2.390625 -30.84375 2.519531 -31.3125 2.78125 -31.5625 C 3.050781 -31.820312 3.519531 -31.953125 4.1875 -31.953125 L 9.453125 -31.953125 C 10.140625 -31.953125 10.609375 -31.820312 10.859375 -31.5625 C 11.117188 -31.3125 11.25 -30.84375 11.25 -30.15625 L 11.25 -1.796875 C 11.25 -1.140625 11.117188 -0.675781 10.859375 -0.40625 C 10.609375 -0.132812 10.140625 0 9.453125 0 Z M 4.1875 0 "/></g></g></g><g fill="#ff3131" fill-opacity="1"><g transform="translate(119.041151, 185.849388)"><g><path d="M 4.28125 0 C 3.550781 0 3.050781 -0.140625 2.78125 -0.421875 C 2.519531 -0.710938 2.390625 -1.203125 2.390625 -1.890625 L 2.390625 -30.0625 C 2.390625 -30.75 2.519531 -31.234375 2.78125 -31.515625 C 3.050781 -31.804688 3.550781 -31.953125 4.28125 -31.953125 L 9.578125 -31.953125 C 10.085938 -31.953125 10.476562 -31.882812 10.75 -31.75 C 11.019531 -31.613281 11.257812 -31.378906 11.46875 -31.046875 L 18.859375 -19.484375 C 19.515625 -18.460938 20.03125 -17.546875 20.40625 -16.734375 C 20.78125 -15.929688 21.128906 -15.109375 21.453125 -14.265625 C 21.785156 -13.421875 22.179688 -12.429688 22.640625 -11.296875 L 23 -11.296875 C 22.519531 -12.828125 22.128906 -14.15625 21.828125 -15.28125 C 21.523438 -16.40625 21.304688 -17.535156 21.171875 -18.671875 C 21.035156 -19.816406 20.96875 -21.140625 20.96875 -22.640625 L 20.96875 -30.0625 C 20.96875 -30.75 21.101562 -31.234375 21.375 -31.515625 C 21.644531 -31.804688 22.140625 -31.953125 22.859375 -31.953125 L 27.453125 -31.953125 C 28.140625 -31.953125 28.625 -31.804688 28.90625 -31.515625 C 29.195312 -31.234375 29.34375 -30.75 29.34375 -30.0625 L 29.34375 -1.890625 C 29.34375 -1.203125 29.195312 -0.710938 28.90625 -0.421875 C 28.625 -0.140625 28.140625 0 27.453125 0 L 22.359375 0 C 21.523438 0 20.910156 -0.300781 20.515625 -0.90625 L 13.59375 -11.609375 C 12.925781 -12.660156 12.375 -13.628906 11.9375 -14.515625 C 11.507812 -15.398438 11.125 -16.34375 10.78125 -17.34375 C 10.4375 -18.351562 10.050781 -19.515625 9.625 -20.828125 L 9.265625 -20.828125 C 9.597656 -19.421875 9.867188 -18.160156 10.078125 -17.046875 C 10.285156 -15.941406 10.445312 -14.78125 10.5625 -13.5625 C 10.6875 -12.351562 10.75 -10.90625 10.75 -9.21875 L 10.75 -1.890625 C 10.75 -1.203125 10.609375 -0.710938 10.328125 -0.421875 C 10.046875 -0.140625 9.539062 0 8.8125 0 Z M 4.28125 0 "/></g></g></g><g fill="#ff3131" fill-opacity="1"><g transform="translate(150.721119, 185.849388)"><g><path d="M 4.28125 0 C 3.550781 0 3.050781 -0.140625 2.78125 -0.421875 C 2.519531 -0.710938 2.390625 -1.203125 2.390625 -1.890625 L 2.390625 -30.0625 C 2.390625 -30.75 2.519531 -31.234375 2.78125 -31.515625 C 3.050781 -31.804688 3.550781 -31.953125 4.28125 -31.953125 L 9.578125 -31.953125 C 10.085938 -31.953125 10.476562 -31.882812 10.75 -31.75 C 11.019531 -31.613281 11.257812 -31.378906 11.46875 -31.046875 L 18.859375 -19.484375 C 19.515625 -18.460938 20.03125 -17.546875 20.40625 -16.734375 C 20.78125 -15.929688 21.128906 -15.109375 21.453125 -14.265625 C 21.785156 -13.421875 22.179688 -12.429688 22.640625 -11.296875 L 23 -11.296875 C 22.519531 -12.828125 22.128906 -14.15625 21.828125 -15.28125 C 21.523438 -16.40625 21.304688 -17.535156 21.171875 -18.671875 C 21.035156 -19.816406 20.96875 -21.140625 20.96875 -22.640625 L 20.96875 -30.0625 C 20.96875 -30.75 21.101562 -31.234375 21.375 -31.515625 C 21.644531 -31.804688 22.140625 -31.953125 22.859375 -31.953125 L 27.453125 -31.953125 C 28.140625 -31.953125 28.625 -31.804688 28.90625 -31.515625 C 29.195312 -31.234375 29.34375 -30.75 29.34375 -30.0625 L 29.34375 -1.890625 C 29.34375 -1.203125 29.195312 -0.710938 28.90625 -0.421875 C 28.625 -0.140625 28.140625 0 27.453125 0 L 22.359375 0 C 21.523438 0 20.910156 -0.300781 20.515625 -0.90625 L 13.59375 -11.609375 C 12.925781 -12.660156 12.375 -13.628906 11.9375 -14.515625 C 11.507812 -15.398438 11.125 -16.34375 10.78125 -17.34375 C 10.4375 -18.351562 10.050781 -19.515625 9.625 -20.828125 L 9.265625 -20.828125 C 9.597656 -19.421875 9.867188 -18.160156 10.078125 -17.046875 C 10.285156 -15.941406 10.445312 -14.78125 10.5625 -13.5625 C 10.6875 -12.351562 10.75 -10.90625 10.75 -9.21875 L 10.75 -1.890625 C 10.75 -1.203125 10.609375 -0.710938 10.328125 -0.421875 C 10.046875 -0.140625 9.539062 0 8.8125 0 Z M 4.28125 0 "/></g></g></g><g fill="#ff3131" fill-opacity="1"><g transform="translate(182.401087, 185.849388)"><g><path d="M 15.4375 0.671875 C 11 0.671875 7.585938 -0.453125 5.203125 -2.703125 C 2.816406 -4.953125 1.625 -8.007812 1.625 -11.875 L 1.625 -20.0625 C 1.625 -23.9375 2.816406 -27 5.203125 -29.25 C 7.585938 -31.5 11 -32.625 15.4375 -32.625 C 19.875 -32.625 23.285156 -31.5 25.671875 -29.25 C 28.054688 -27 29.25 -23.9375 29.25 -20.0625 L 29.25 -11.875 C 29.25 -8.007812 28.054688 -4.953125 25.671875 -2.703125 C 23.285156 -0.453125 19.875 0.671875 15.4375 0.671875 Z M 15.4375 -7.203125 C 17 -7.203125 18.207031 -7.566406 19.0625 -8.296875 C 19.914062 -9.035156 20.34375 -10.109375 20.34375 -11.515625 L 20.34375 -20.4375 C 20.34375 -21.84375 19.914062 -22.910156 19.0625 -23.640625 C 18.207031 -24.378906 17 -24.75 15.4375 -24.75 C 13.875 -24.75 12.65625 -24.378906 11.78125 -23.640625 C 10.914062 -22.910156 10.484375 -21.84375 10.484375 -20.4375 L 10.484375 -11.515625 C 10.484375 -10.109375 10.914062 -9.035156 11.78125 -8.296875 C 12.65625 -7.566406 13.875 -7.203125 15.4375 -7.203125 Z M 15.4375 -7.203125 "/></g></g></g><g fill="#ff3131" fill-opacity="1"><g transform="translate(212.281048, 185.849388)"><g><path d="M 12.640625 0 C 11.984375 0 11.484375 -0.101562 11.140625 -0.3125 C 10.796875 -0.519531 10.519531 -0.910156 10.3125 -1.484375 L 0.3125 -30.109375 C -0.132812 -31.335938 0.300781 -31.953125 1.625 -31.953125 L 6.75 -31.953125 C 7.882812 -31.953125 8.6875 -31.804688 9.15625 -31.515625 C 9.625 -31.234375 9.929688 -30.75 10.078125 -30.0625 L 14.40625 -14.671875 C 14.644531 -13.796875 14.835938 -12.910156 14.984375 -12.015625 C 15.128906 -11.117188 15.234375 -10.367188 15.296875 -9.765625 C 15.359375 -9.160156 15.390625 -8.859375 15.390625 -8.859375 L 15.796875 -8.859375 C 15.796875 -8.859375 15.816406 -9.148438 15.859375 -9.734375 C 15.910156 -10.328125 16.007812 -11.066406 16.15625 -11.953125 C 16.300781 -12.835938 16.492188 -13.726562 16.734375 -14.625 L 21.015625 -30.0625 C 21.191406 -30.75 21.5 -31.234375 21.9375 -31.515625 C 22.375 -31.804688 23.144531 -31.953125 24.25 -31.953125 L 29.296875 -31.953125 C 30.585938 -31.953125 31.007812 -31.335938 30.5625 -30.109375 L 20.609375 -1.578125 C 20.398438 -0.910156 20.125 -0.476562 19.78125 -0.28125 C 19.4375 -0.09375 18.929688 0 18.265625 0 Z M 12.640625 0 "/></g></g></g><g fill="#ff3131" fill-opacity="1"><g transform="translate(239.686019, 185.849388)"><g><path d="M 1.53125 0 C 0.84375 0 0.414062 -0.15625 0.25 -0.46875 C 0.0820312 -0.78125 0.101562 -1.238281 0.3125 -1.84375 L 10.671875 -30.375 C 10.910156 -31.03125 11.203125 -31.457031 11.546875 -31.65625 C 11.890625 -31.851562 12.375 -31.953125 13 -31.953125 L 18.140625 -31.953125 C 18.765625 -31.953125 19.253906 -31.851562 19.609375 -31.65625 C 19.972656 -31.457031 20.257812 -31.0625 20.46875 -30.46875 L 30.875 -1.84375 C 31.320312 -0.613281 30.882812 0 29.5625 0 L 24.703125 0 C 23.566406 0 22.765625 -0.140625 22.296875 -0.421875 C 21.828125 -0.710938 21.503906 -1.203125 21.328125 -1.890625 L 20.34375 -5.125 L 10.53125 -5.125 L 9.5 -1.890625 C 9.289062 -1.203125 8.972656 -0.710938 8.546875 -0.421875 C 8.128906 -0.140625 7.363281 0 6.25 0 Z M 12.640625 -12.1875 L 18.265625 -12.1875 L 16.609375 -17.453125 C 16.304688 -18.472656 16.085938 -19.472656 15.953125 -20.453125 C 15.816406 -21.429688 15.722656 -22.234375 15.671875 -22.859375 C 15.628906 -23.492188 15.609375 -23.8125 15.609375 -23.8125 L 15.171875 -23.8125 C 15.171875 -23.8125 15.160156 -23.492188 15.140625 -22.859375 C 15.128906 -22.234375 15.0625 -21.4375 14.9375 -20.46875 C 14.820312 -19.507812 14.613281 -18.519531 14.3125 -17.5 Z M 12.640625 -12.1875 "/></g></g></g><g fill="#ffffff" fill-opacity="1"><g transform="translate(108.042091, 242.167923)"><g><path d="M 4.1875 0 C 3.476562 0 2.988281 -0.128906 2.71875 -0.390625 C 2.457031 -0.660156 2.328125 -1.128906 2.328125 -1.796875 L 2.328125 -29.4375 C 2.328125 -30.113281 2.457031 -30.582031 2.71875 -30.84375 C 2.988281 -31.101562 3.476562 -31.234375 4.1875 -31.234375 L 8.3125 -31.234375 C 9.070312 -31.234375 9.628906 -31.148438 9.984375 -30.984375 C 10.335938 -30.828125 10.644531 -30.457031 10.90625 -29.875 L 18.171875 -15.65625 L 25.4375 -29.828125 C 25.726562 -30.441406 26.023438 -30.828125 26.328125 -30.984375 C 26.640625 -31.148438 27.160156 -31.234375 27.890625 -31.234375 L 32.296875 -31.234375 C 33.003906 -31.234375 33.492188 -31.101562 33.765625 -30.84375 C 34.046875 -30.582031 34.1875 -30.113281 34.1875 -29.4375 L 34.1875 -1.796875 C 34.1875 -1.128906 34.046875 -0.660156 33.765625 -0.390625 C 33.492188 -0.128906 33.003906 0 32.296875 0 L 27.5 0 C 26.820312 0 26.34375 -0.128906 26.0625 -0.390625 C 25.789062 -0.660156 25.65625 -1.128906 25.65625 -1.796875 L 25.65625 -8.140625 C 25.65625 -9.109375 25.695312 -10.101562 25.78125 -11.125 C 25.875 -12.15625 26.054688 -13.351562 26.328125 -14.71875 C 26.609375 -16.082031 27.03125 -17.734375 27.59375 -19.671875 L 27.140625 -19.671875 C 26.992188 -19.203125 26.738281 -18.492188 26.375 -17.546875 C 26.007812 -16.609375 25.628906 -15.660156 25.234375 -14.703125 C 24.835938 -13.753906 24.476562 -12.972656 24.15625 -12.359375 L 21.640625 -7.390625 C 21.441406 -6.953125 21.191406 -6.632812 20.890625 -6.4375 C 20.597656 -6.25 20.160156 -6.15625 19.578125 -6.15625 L 16.625 -6.15625 C 16.039062 -6.15625 15.601562 -6.242188 15.3125 -6.421875 C 15.019531 -6.597656 14.753906 -6.921875 14.515625 -7.390625 L 11.921875 -12.359375 C 11.628906 -12.953125 11.289062 -13.71875 10.90625 -14.65625 C 10.53125 -15.59375 10.1875 -16.53125 9.875 -17.46875 C 9.570312 -18.40625 9.347656 -19.140625 9.203125 -19.671875 L 8.75 -19.671875 C 9.28125 -17.554688 9.675781 -15.832031 9.9375 -14.5 C 10.207031 -13.164062 10.378906 -12.019531 10.453125 -11.0625 C 10.523438 -10.113281 10.5625 -9.125 10.5625 -8.09375 L 10.5625 -1.796875 C 10.5625 -1.128906 10.421875 -0.660156 10.140625 -0.390625 C 9.859375 -0.128906 9.367188 0 8.671875 0 Z M 4.1875 0 "/></g></g></g><g fill="#ffffff" fill-opacity="1"><g transform="translate(144.511593, 242.167923)"><g><path d="M 10.78125 -33.3125 C 10.25 -33.164062 9.835938 -33.09375 9.546875 -33.09375 C 9.253906 -33.09375 8.988281 -33.238281 8.75 -33.53125 L 7.5625 -34.984375 C 7.21875 -35.390625 7.050781 -35.71875 7.0625 -35.96875 C 7.070312 -36.21875 7.269531 -36.445312 7.65625 -36.65625 L 13.859375 -40.21875 C 14.359375 -40.507812 14.859375 -40.679688 15.359375 -40.734375 C 15.859375 -40.796875 16.328125 -40.578125 16.765625 -40.078125 L 19.015625 -37.53125 C 19.421875 -37.125 19.613281 -36.78125 19.59375 -36.5 C 19.582031 -36.21875 19.3125 -35.972656 18.78125 -35.765625 Z M 4.1875 0 C 3.476562 0 2.988281 -0.140625 2.71875 -0.421875 C 2.457031 -0.703125 2.328125 -1.175781 2.328125 -1.84375 L 2.328125 -29.390625 C 2.328125 -30.066406 2.457031 -30.539062 2.71875 -30.8125 C 2.988281 -31.09375 3.476562 -31.234375 4.1875 -31.234375 L 22.609375 -31.234375 C 23.316406 -31.234375 23.8125 -31.09375 24.09375 -30.8125 C 24.375 -30.539062 24.515625 -30.066406 24.515625 -29.390625 L 24.515625 -25.4375 C 24.515625 -24.726562 24.375 -24.238281 24.09375 -23.96875 C 23.8125 -23.707031 23.316406 -23.578125 22.609375 -23.578125 L 11 -23.578125 L 11 -19.625 L 20.28125 -19.625 C 20.988281 -19.625 21.476562 -19.484375 21.75 -19.203125 C 22.03125 -18.921875 22.171875 -18.429688 22.171875 -17.734375 L 22.171875 -13.8125 C 22.171875 -13.113281 22.03125 -12.625 21.75 -12.34375 C 21.476562 -12.0625 20.988281 -11.921875 20.28125 -11.921875 L 11 -11.921875 L 11 -7.703125 L 23.015625 -7.703125 C 23.691406 -7.703125 24.164062 -7.566406 24.4375 -7.296875 C 24.71875 -7.035156 24.859375 -6.554688 24.859375 -5.859375 L 24.859375 -1.84375 C 24.859375 -1.175781 24.71875 -0.703125 24.4375 -0.421875 C 24.164062 -0.140625 23.691406 0 23.015625 0 Z M 4.1875 0 "/></g></g></g><g fill="#ffffff" fill-opacity="1"><g transform="translate(170.554957, 242.167923)"><g><path d="M 1.40625 0 C 0.757812 0 0.351562 -0.175781 0.1875 -0.53125 C 0.03125 -0.882812 0.128906 -1.320312 0.484375 -1.84375 L 9.546875 -15.921875 L 0.921875 -29.484375 C 0.597656 -29.984375 0.507812 -30.398438 0.65625 -30.734375 C 0.800781 -31.066406 1.179688 -31.234375 1.796875 -31.234375 L 7.046875 -31.234375 C 8.160156 -31.234375 8.941406 -31.144531 9.390625 -30.96875 C 9.847656 -30.800781 10.28125 -30.378906 10.6875 -29.703125 L 14.65625 -22.875 L 18.5625 -29.703125 C 18.976562 -30.429688 19.394531 -30.867188 19.8125 -31.015625 C 20.238281 -31.160156 20.953125 -31.234375 21.953125 -31.234375 L 27.59375 -31.234375 C 28.207031 -31.234375 28.585938 -31.066406 28.734375 -30.734375 C 28.878906 -30.398438 28.789062 -29.984375 28.46875 -29.484375 L 19.75 -15.921875 L 28.90625 -1.84375 C 29.257812 -1.375 29.363281 -0.945312 29.21875 -0.5625 C 29.070312 -0.1875 28.660156 0 27.984375 0 L 22.359375 0 C 21.585938 0 20.988281 -0.0234375 20.5625 -0.078125 C 20.144531 -0.140625 19.800781 -0.285156 19.53125 -0.515625 C 19.269531 -0.753906 18.992188 -1.125 18.703125 -1.625 L 14.515625 -8.890625 L 10.421875 -1.625 C 10.160156 -1.1875 9.90625 -0.847656 9.65625 -0.609375 C 9.40625 -0.378906 9.066406 -0.21875 8.640625 -0.125 C 8.222656 -0.0390625 7.613281 0 6.8125 0 Z M 1.40625 0 "/></g></g></g><g fill="#ffffff" fill-opacity="1"><g transform="translate(199.941724, 242.167923)"><g><path d="M 4.09375 0 C 3.445312 0 2.988281 -0.128906 2.71875 -0.390625 C 2.457031 -0.660156 2.328125 -1.117188 2.328125 -1.765625 L 2.328125 -29.484375 C 2.328125 -30.148438 2.457031 -30.609375 2.71875 -30.859375 C 2.988281 -31.109375 3.445312 -31.234375 4.09375 -31.234375 L 9.234375 -31.234375 C 9.910156 -31.234375 10.375 -31.109375 10.625 -30.859375 C 10.875 -30.609375 11 -30.148438 11 -29.484375 L 11 -1.765625 C 11 -1.117188 10.875 -0.660156 10.625 -0.390625 C 10.375 -0.128906 9.910156 0 9.234375 0 Z M 4.09375 0 "/></g></g></g><g fill="#ffffff" fill-opacity="1"><g transform="translate(213.271343, 242.167923)"><g><path d="M 15.09375 0.65625 C 10.75 0.65625 7.410156 -0.441406 5.078125 -2.640625 C 2.742188 -4.835938 1.578125 -7.828125 1.578125 -11.609375 L 1.578125 -19.625 C 1.578125 -23.40625 2.742188 -26.394531 5.078125 -28.59375 C 7.410156 -30.800781 10.75 -31.90625 15.09375 -31.90625 C 18.5 -31.90625 21.253906 -31.234375 23.359375 -29.890625 C 25.472656 -28.554688 26.984375 -26.660156 27.890625 -24.203125 C 28.128906 -23.554688 28.160156 -23.054688 27.984375 -22.703125 C 27.804688 -22.347656 27.394531 -22.054688 26.75 -21.828125 L 22.046875 -20.15625 C 21.367188 -19.945312 20.859375 -19.921875 20.515625 -20.078125 C 20.179688 -20.242188 19.898438 -20.664062 19.671875 -21.34375 C 19.285156 -22.34375 18.738281 -23.066406 18.03125 -23.515625 C 17.332031 -23.972656 16.351562 -24.203125 15.09375 -24.203125 C 13.363281 -24.203125 12.125 -23.828125 11.375 -23.078125 C 10.625 -22.328125 10.25 -21.191406 10.25 -19.671875 L 10.25 -11.578125 C 10.25 -10.046875 10.625 -8.90625 11.375 -8.15625 C 12.125 -7.414062 13.363281 -7.046875 15.09375 -7.046875 C 16.320312 -7.046875 17.300781 -7.285156 18.03125 -7.765625 C 18.769531 -8.242188 19.316406 -8.957031 19.671875 -9.90625 C 19.929688 -10.570312 20.226562 -10.992188 20.5625 -11.171875 C 20.90625 -11.347656 21.398438 -11.320312 22.046875 -11.09375 L 26.75 -9.421875 C 27.394531 -9.210938 27.804688 -8.925781 27.984375 -8.5625 C 28.160156 -8.195312 28.128906 -7.691406 27.890625 -7.046875 C 26.984375 -4.578125 25.472656 -2.675781 23.359375 -1.34375 C 21.253906 -0.0078125 18.5 0.65625 15.09375 0.65625 Z M 15.09375 0.65625 "/></g></g></g><g fill="#ffffff" fill-opacity="1"><g transform="translate(242.086202, 242.167923)"><g><path d="M 15.09375 0.65625 C 10.75 0.65625 7.410156 -0.441406 5.078125 -2.640625 C 2.742188 -4.835938 1.578125 -7.828125 1.578125 -11.609375 L 1.578125 -19.625 C 1.578125 -23.40625 2.742188 -26.394531 5.078125 -28.59375 C 7.410156 -30.800781 10.75 -31.90625 15.09375 -31.90625 C 19.4375 -31.90625 22.769531 -30.800781 25.09375 -28.59375 C 27.425781 -26.394531 28.59375 -23.40625 28.59375 -19.625 L 28.59375 -11.609375 C 28.59375 -7.828125 27.425781 -4.835938 25.09375 -2.640625 C 22.769531 -0.441406 19.4375 0.65625 15.09375 0.65625 Z M 15.09375 -7.046875 C 16.613281 -7.046875 17.789062 -7.40625 18.625 -8.125 C 19.46875 -8.84375 19.890625 -9.890625 19.890625 -11.265625 L 19.890625 -19.96875 C 19.890625 -21.351562 19.46875 -22.40625 18.625 -23.125 C 17.789062 -23.84375 16.613281 -24.203125 15.09375 -24.203125 C 13.5625 -24.203125 12.367188 -23.84375 11.515625 -23.125 C 10.671875 -22.40625 10.25 -21.351562 10.25 -19.96875 L 10.25 -11.265625 C 10.25 -9.890625 10.671875 -8.84375 11.515625 -8.125 C 12.367188 -7.40625 13.5625 -7.046875 15.09375 -7.046875 Z M 15.09375 -7.046875 "/></g></g></g></svg>