<?xml version="1.0" encoding="UTF-8"?>
<svg width="24px" height="24px" viewBox="0 0 24 24" version="1.1" xmlns="http://www.w3.org/2000/svg">
    <path d="M23.498,6.186 C23.2367133,5.2426782 22.4800249,4.48695874 21.537,4.226 C19.663,3.726 12,3.726 12,3.726 C12,3.726 4.337,3.726 2.463,4.226 C1.51997511,4.48695874 0.763286658,5.2426782 0.502,6.186 C0,8.061 0,12 0,12 C0,12 0,15.939 0.502,17.814 C0.763286658,18.7573218 1.51997511,19.5130413 2.463,19.774 C4.337,20.274 12,20.274 12,20.274 C12,20.274 19.663,20.274 21.537,19.774 C22.4800249,19.5130413 23.2367133,18.7573218 23.498,17.814 C24,15.939 24,12 24,12 C24,12 24,8.061 23.498,6.186 Z M9.545,15.568 L9.545,8.432 L15.818,12 L9.545,15.568 Z" fill="#FF0000"/>
</svg> 